<?xml version="1.0" encoding="UTF-8"?><svg id="_レイヤー_1" xmlns="http://www.w3.org/2000/svg" viewBox="0 0 111.99 151.19"><defs><style>.cls-1{fill:#fff;}</style></defs><path class="cls-1" d="m47.49,23.75C47.49,10.63,36.86,0,23.75,0S0,10.63,0,23.75c0,12.31,9.37,22.44,21.37,23.63v4.59C9.37,53.16,0,63.28,0,75.59c0,1.64.17,3.24.48,4.79.16.77.35,1.53.59,2.28.75,2.42,1.88,4.67,3.31,6.69,3.87,5.44,9.99,9.17,16.99,9.87v4.6c-12,1.19-21.37,11.31-21.37,23.63,0,13.11,10.63,23.75,23.75,23.75s23.75-10.63,23.75-23.75c0-12.31-9.37-22.44-21.37-23.63v-4.59c1.62-.16,3.18-.48,4.69-.95.74-.23,1.47-.5,2.18-.8,1.07-.45,2.09-.98,3.07-1.57,1.63-.99,3.14-2.17,4.48-3.52,4.3-4.3,6.96-10.23,6.96-16.79,0-10.66-7.02-19.67-16.69-22.68-.74-.23-1.5-.43-2.28-.59-.79-.16-1.59-.28-2.41-.36v-4.59c12-1.19,21.37-11.31,21.37-23.63Zm-4,51.85c0,10.89-8.86,19.75-19.75,19.75s-19.75-8.86-19.75-19.75,8.86-19.75,19.75-19.75,19.75,8.86,19.75,19.75ZM23.43,25.9h-1.31v8.45h-4.08V14.02h4.4c4.37,0,9.58-.15,9.58,5.51,0,2.39-1.6,4.37-4.2,4.72v.06c1.11.09,1.75,1.19,2.16,2.1l3.26,7.95h-4.54l-2.45-6.35c-.58-1.51-1.11-2.1-2.83-2.1Zm53.36,8.45h-4.08V14.02h11.3v3.2h-7.22v5.01h6.87v3.2h-6.87v8.91Zm-57.95,51.71h4.08v-7.72h1.72c4.37,0,7.84-1.72,7.84-6.47s-4.05-6.15-8.48-6.15h-5.16v20.33Zm4.08-17.13h1.43c2.1,0,3.87.82,3.87,3.18s-1.84,3.03-3.87,3.03h-1.43v-6.2Zm.54-46.24h-1.34v-5.48h1.34c2.04,0,4.31.2,4.31,2.65s-2.3,2.83-4.31,2.83Zm80.69,56.26v-1.92c0-4.43-1.89-6.32-6.47-6.32-1.66,0-3.7.44-5.21,1.14l.12,3.35c1.31-.99,2.97-1.63,4.63-1.63,2.3,0,3.38.82,3.38,3.23h-2.16c-1.63,0-3.55.15-5.04.87-1.49.73-2.56,2.04-2.56,4.28,0,2.85,2.59,4.46,5.24,4.46,1.78,0,3.73-.93,4.63-2.59h.06c.03.47.03,1.46.17,2.24h3.44c-.09-1.17-.15-2.21-.17-3.35-.03-1.11-.06-2.24-.06-3.76Zm-4.37,3.26c-.61.82-1.54,1.34-2.74,1.34-1.4,0-2.48-.55-2.48-1.84,0-2.3,2.59-2.59,4.34-2.59h1.69c0,1.16-.17,2.24-.82,3.09Zm-10.52.76l.12,3.09c-.82.23-1.72.35-2.88.35-3.06,0-4.75-1.89-4.75-4.86v-7.63h-2.88v-2.85h2.88v-3l3.9-1.25v4.25h3.47v2.85h-3.47v6.99c0,1.28.35,2.48,1.83,2.48.7,0,1.37-.15,1.78-.41Zm-31.06-12.26c-4.43,0-7.84,3-7.84,7.95,0,4.31,2.88,7.75,7.84,7.75s7.86-3.44,7.86-7.75c0-4.95-3.41-7.95-7.86-7.95Zm0,12.67c-2.97,0-3.76-2.71-3.76-5.19,0-2.24,1.22-4.46,3.76-4.46s3.79,2.16,3.79,4.46c0,2.5-.79,5.19-3.79,5.19Zm53.78-19.17v21.85h-3.9v-21.85h3.9Zm-35.14,6.5c.38,0,.79,0,1.19.12v3.93c-.35-.2-1.05-.32-1.75-.32-3.17,0-3.17,3.96-3.17,6.12v5.51h-3.9v-15h3.47v3.41h.06c.17-1.4,1.78-3.76,4.11-3.76ZM57.24,14.02h-5.56v20.33h5.56c6.23,0,11.74-2.1,11.74-10.17s-5.51-10.17-11.74-10.17Zm.79,17.13h-2.27v-13.92h2.27c3.41,0,6.7,2.53,6.7,6.96s-3.29,6.96-6.7,6.96Z"/></svg>